<svg xmlns="http://www.w3.org/2000/svg" width="1600" height="1200" viewBox="0 0 1600 1200">
  <defs>
    <linearGradient id="wall" x1="0" y1="0" x2="0" y2="1">
      <stop offset="0%" stop-color="#f7f2ea"/>
      <stop offset="100%" stop-color="#efe4d5"/>
    </linearGradient>
    <linearGradient id="panel" x1="0" y1="0" x2="1" y2="1">
      <stop offset="0%" stop-color="#fcf8f2"/>
      <stop offset="100%" stop-color="#eee3d4"/>
    </linearGradient>
    <linearGradient id="frame" x1="0" y1="0" x2="0" y2="1">
      <stop offset="0%" stop-color="#f1e8dc"/>
      <stop offset="60%" stop-color="#e0ccb5"/>
      <stop offset="100%" stop-color="#c5a280"/>
    </linearGradient>
    <linearGradient id="shelfTop" x1="0" y1="0" x2="0" y2="1">
      <stop offset="0%" stop-color="#f0dcc1"/>
      <stop offset="100%" stop-color="#ddba91"/>
    </linearGradient>
    <linearGradient id="shelfFace" x1="0" y1="0" x2="0" y2="1">
      <stop offset="0%" stop-color="#dbb489"/>
      <stop offset="100%" stop-color="#bb8a60"/>
    </linearGradient>
  </defs>
  <rect width="1600" height="1200" fill="url(#wall)"/>
  <rect x="58" y="54" width="1484" height="1092" rx="28" fill="url(#panel)" stroke="#dbc3aa" stroke-width="7"/>
  <rect x="58" y="54" width="68" height="1092" rx="22" fill="url(#frame)"/>
  <rect x="1474" y="54" width="68" height="1092" rx="22" fill="url(#frame)"/>
  <rect x="58" y="54" width="1484" height="62" rx="22" fill="url(#frame)"/>
  <g opacity="0.18">
    <rect x="430" y="118" width="18" height="956" rx="8" fill="#e8dccd"/>
    <rect x="791" y="118" width="18" height="956" rx="8" fill="#e8dccd"/>
    <rect x="1152" y="118" width="18" height="956" rx="8" fill="#e8dccd"/>
  </g>
  <g opacity="0.96">
    <rect x="102" y="304" width="1396" height="12" rx="4" fill="url(#shelfTop)"/>
    <rect x="88" y="316" width="1424" height="32" rx="7" fill="url(#shelfFace)"/>
    <rect x="88" y="348" width="1424" height="8" rx="3" fill="rgba(122, 89, 57, 0.14)"/>
    <rect x="102" y="596" width="1396" height="12" rx="4" fill="url(#shelfTop)"/>
    <rect x="88" y="608" width="1424" height="32" rx="7" fill="url(#shelfFace)"/>
    <rect x="88" y="640" width="1424" height="8" rx="3" fill="rgba(122, 89, 57, 0.14)"/>
    <rect x="102" y="888" width="1396" height="12" rx="4" fill="url(#shelfTop)"/>
    <rect x="88" y="900" width="1424" height="32" rx="7" fill="url(#shelfFace)"/>
    <rect x="88" y="932" width="1424" height="8" rx="3" fill="rgba(122, 89, 57, 0.14)"/>
  </g>
  <g opacity="0.045">
    <rect x="126" y="138" width="286" height="156" rx="14" fill="#ffffff"/>
    <rect x="452" y="138" width="324" height="156" rx="14" fill="#f8f0e5"/>
    <rect x="818" y="138" width="324" height="156" rx="14" fill="#ffffff"/>
    <rect x="1184" y="138" width="264" height="156" rx="14" fill="#f8f0e5"/>
    <rect x="126" y="430" width="286" height="156" rx="14" fill="#ffffff"/>
    <rect x="452" y="430" width="324" height="156" rx="14" fill="#f8f0e5"/>
    <rect x="818" y="430" width="324" height="156" rx="14" fill="#ffffff"/>
    <rect x="1184" y="430" width="264" height="156" rx="14" fill="#f8f0e5"/>
    <rect x="126" y="722" width="286" height="156" rx="14" fill="#ffffff"/>
    <rect x="452" y="722" width="324" height="156" rx="14" fill="#f8f0e5"/>
    <rect x="818" y="722" width="324" height="156" rx="14" fill="#ffffff"/>
    <rect x="1184" y="722" width="264" height="156" rx="14" fill="#f8f0e5"/>
  </g>
</svg>
